<svg width="210" height="72" viewBox="0 0 210 72" fill="none" xmlns="http://www.w3.org/2000/svg">
<g filter="url(#filter0_d_44_552)">
<rect width="194" height="56" transform="translate(8)" fill="white"/>
<path d="M40.368 24.16V22.8H32.256V24.16H35.536V34H37.104V24.16H40.368ZM43.457 29.584C43.457 28.112 44.321 27.328 45.377 27.328C46.529 27.328 46.993 27.936 46.993 29.152V34H48.577V28.768C48.577 26.896 47.633 25.968 45.953 25.968C44.865 25.968 43.969 26.48 43.457 27.568V22.32H41.889V34H43.457V29.584ZM57.366 31.632H55.83C55.718 32.304 55.27 32.752 54.438 32.816C54.342 32.832 54.262 32.848 54.166 32.848C52.998 32.848 52.406 32.16 52.31 31.024C52.294 30.816 52.278 30.592 52.262 30.352H57.414V29.536C57.414 27.2 56.118 25.968 54.102 25.968C52.006 25.968 50.646 27.168 50.646 29.472V30.64C50.646 32.96 52.022 34.16 54.086 34.16C55.926 34.16 57.158 33.248 57.366 31.632ZM52.262 29.28C52.31 28.048 52.886 27.264 54.118 27.264C55.318 27.264 55.846 27.92 55.91 29.36H52.406L52.262 29.28ZM70.18 34H72.052V22.8H70.516V31.632L65.812 22.8H63.94V34H65.476V25.184L70.18 34ZM77.8524 34.16C79.9804 34.16 81.3564 32.96 81.3564 30.64V29.472C81.3564 27.168 79.9804 25.968 77.8524 25.968C75.7404 25.968 74.3804 27.168 74.3804 29.472V30.64C74.3804 32.96 75.7404 34.16 77.8524 34.16ZM77.8524 27.328C79.1484 27.328 79.7404 28.192 79.7404 29.504V30.608C79.7404 31.936 79.1484 32.8 77.8524 32.8C76.5724 32.8 75.9804 31.936 75.9804 30.608V29.504C75.9804 28.192 76.5724 27.328 77.8524 27.328ZM85.0664 29.76C85.0664 28.24 86.0104 27.504 87.3544 27.504H87.8024V25.968H87.4184C86.3944 25.968 85.5784 26.464 85.0664 27.488V26.128H83.4984V34H85.0664V29.76ZM90.8618 31.808V22.32H89.2778V31.856C89.2778 33.616 89.9658 34.08 91.6458 34.08H91.9498V32.72H91.7098C91.0698 32.72 90.8618 32.512 90.8618 31.808ZM98.4416 34H100.01V26.128H98.4416V30.592C98.4416 32.064 97.5936 32.848 96.5696 32.848C95.4656 32.848 95.0016 32.24 95.0016 31.024V26.128H93.4336V31.408C93.4336 33.248 94.3616 34.16 96.0096 34.16C97.1456 34.16 97.9936 33.632 98.4416 32.448V34ZM105.201 27.168C106.289 27.168 106.769 27.6 106.865 28.512H108.385C108.305 26.864 107.345 25.968 105.185 25.968C103.185 25.968 102.241 26.88 102.241 28.272C102.241 29.632 102.993 30.208 104.497 30.512L105.633 30.736C106.705 30.96 106.993 31.152 106.993 31.856C106.993 32.576 106.561 32.96 105.425 32.96C104.193 32.96 103.633 32.512 103.505 31.488H102.017C102.225 33.328 103.345 34.16 105.393 34.16C107.505 34.16 108.561 33.344 108.561 31.792C108.561 30.432 107.905 29.92 106.049 29.52L105.025 29.312C104.145 29.104 103.809 28.88 103.809 28.208C103.809 27.52 104.193 27.168 105.201 27.168ZM119.964 32.016H121.276L124.748 25.44V34H126.268V22.8H124.492L120.668 30.208L116.924 22.8H114.956V34H116.492V25.44L119.964 32.016ZM133.351 34H134.919V28.832C134.919 26.864 133.895 25.968 131.943 25.968C129.879 25.968 128.935 26.976 128.743 28.496H130.279C130.375 27.792 130.807 27.328 131.815 27.328C132.935 27.328 133.351 27.808 133.351 28.992V29.536H131.351C129.271 29.536 128.487 30.384 128.487 31.568V32.016C128.487 33.344 129.415 34.16 131.031 34.16C132.247 34.16 132.951 33.76 133.351 32.96V34ZM131.527 33.024C130.519 33.024 130.071 32.624 130.071 31.872V31.568C130.071 30.896 130.439 30.496 131.527 30.496H133.351V31.12C133.351 32.48 132.695 33.024 131.527 33.024ZM138.91 29.584C138.91 28.112 139.774 27.328 140.83 27.328C141.982 27.328 142.446 27.936 142.446 29.152V34H144.03V28.768C144.03 26.896 143.07 25.968 141.406 25.968C140.318 25.968 139.422 26.464 138.91 27.552V26.128H137.342V34H138.91V29.584ZM147.236 24.688C147.86 24.688 148.276 24.288 148.276 23.744C148.276 23.184 147.86 22.8 147.236 22.8C146.628 22.8 146.196 23.184 146.196 23.744C146.196 24.288 146.628 24.688 147.236 24.688ZM146.452 34H148.02V26.128H146.452V34ZM154.497 27.44V26.128H152.513V24.944C152.513 24.08 152.801 23.552 153.841 23.552H154.817V22.24H153.745C151.825 22.24 150.945 23.168 150.945 24.896V26.128H149.713V27.44H150.945V34H152.513V27.44H154.497ZM162.288 31.632H160.752C160.64 32.304 160.192 32.752 159.36 32.816C159.264 32.832 159.184 32.848 159.088 32.848C157.92 32.848 157.328 32.16 157.232 31.024C157.216 30.816 157.2 30.592 157.184 30.352H162.336V29.536C162.336 27.2 161.04 25.968 159.024 25.968C156.928 25.968 155.568 27.168 155.568 29.472V30.64C155.568 32.96 156.944 34.16 159.008 34.16C160.848 34.16 162.08 33.248 162.288 31.632ZM157.184 29.28C157.232 28.048 157.808 27.264 159.04 27.264C160.24 27.264 160.768 27.92 160.832 29.36H157.328L157.184 29.28ZM167.123 27.168C168.211 27.168 168.691 27.6 168.787 28.512H170.307C170.227 26.864 169.267 25.968 167.107 25.968C165.107 25.968 164.163 26.88 164.163 28.272C164.163 29.632 164.915 30.208 166.419 30.512L167.555 30.736C168.627 30.96 168.915 31.152 168.915 31.856C168.915 32.576 168.483 32.96 167.347 32.96C166.115 32.96 165.555 32.512 165.427 31.488H163.939C164.147 33.328 165.267 34.16 167.315 34.16C169.427 34.16 170.483 33.344 170.483 31.792C170.483 30.432 169.827 29.92 167.971 29.52L166.947 29.312C166.067 29.104 165.731 28.88 165.731 28.208C165.731 27.52 166.115 27.168 167.123 27.168ZM176.723 32.768H175.747C174.739 32.768 174.403 32.288 174.403 31.472V27.44H176.723V26.128H174.403V23.824H172.835V26.128H171.619V27.44H172.835V31.456C172.835 33.312 173.619 34.08 175.459 34.08H176.723V32.768Z" fill="#054957"/>
</g>
<defs>
<filter id="filter0_d_44_552" x="0" y="0" width="210" height="72" filterUnits="userSpaceOnUse" color-interpolation-filters="sRGB">
<feFlood flood-opacity="0" result="BackgroundImageFix"/>
<feColorMatrix in="SourceAlpha" type="matrix" values="0 0 0 0 0 0 0 0 0 0 0 0 0 0 0 0 0 0 127 0" result="hardAlpha"/>
<feMorphology radius="8" operator="erode" in="SourceAlpha" result="effect1_dropShadow_44_552"/>
<feOffset dy="8"/>
<feGaussianBlur stdDeviation="8"/>
<feComposite in2="hardAlpha" operator="out"/>
<feColorMatrix type="matrix" values="0 0 0 0 0 0 0 0 0 0.309804 0 0 0 0 0.439216 0 0 0 0.33 0"/>
<feBlend mode="normal" in2="BackgroundImageFix" result="effect1_dropShadow_44_552"/>
<feBlend mode="normal" in="SourceGraphic" in2="effect1_dropShadow_44_552" result="shape"/>
</filter>
</defs>
</svg>
