<svg width="24" height="128" viewBox="0 0 24 128" fill="none" xmlns="http://www.w3.org/2000/svg">
<path d="M8.05651 22.4969C7.05866 19.2269 4.66567 16.5656 1.51965 15.2272L0.792888 14.918C-0.262246 14.3881 -0.264853 12.8953 0.788424 12.3618L3.3817 10.845C5.32324 9.70932 6.89166 8.03238 7.89508 6.01932L10.4973 0.798812C11.0213 -0.252533 12.5277 -0.269858 13.0762 0.769152L15.9934 6.2951C16.9862 8.17559 18.478 9.74612 20.305 10.8342L23.2245 12.573C24.2725 13.117 24.2545 14.6102 23.1936 15.1292L22.7543 15.3C19.4443 16.587 16.9087 19.3228 15.8765 22.721L13.2953 31.219C12.7566 32.2628 11.2506 32.2597 10.7164 31.2136L8.05651 22.4969Z" fill="url(#paint0_linear_43_8945)"/>
<path d="M1.08607 59.8234L1.08607 63.3705L22.3076 63.3705L22.3076 60.4601L5.57291 60.4601L22.3076 51.547L22.3076 48L1.08607 48L1.08607 50.9104L17.7905 50.9104L1.08607 59.8234Z" fill="#032830"/>
<path d="M0.782901 73.4514C0.7829 77.4835 3.05664 80.0907 7.45253 80.0907L9.66563 80.0907C14.0312 80.0907 16.3049 77.4835 16.3049 73.4514C16.3049 69.4496 14.0312 66.8727 9.66563 66.8727L7.45253 66.8727C3.05664 66.8727 0.782901 69.4496 0.782901 73.4514ZM13.728 73.4514C13.728 75.907 12.091 77.0287 9.605 77.0287L7.51316 77.0287C4.99689 77.0287 3.3598 75.907 3.3598 73.4514C3.3598 71.0261 4.99689 69.9044 7.51316 69.9044L9.605 69.9044C12.091 69.9044 13.728 71.0261 13.728 73.4514Z" fill="#032830"/>
<path d="M9.11993 86.2109C12 86.2109 13.3946 87.9995 13.3946 90.5461L13.3946 91.395L16.3049 91.395L16.3049 90.6674C16.3049 88.7271 15.3651 87.181 13.4249 86.2109L16.0018 86.2109L16.0018 83.2398L1.08607 83.2398L1.08607 86.2109L9.11993 86.2109Z" fill="#032830"/>
<path d="M5.23942 96.2823L23.2171 96.2823L23.2171 93.281L5.14848 93.281C1.81366 93.281 0.934484 94.5846 0.934484 97.7678L0.934484 98.3438L3.51138 98.3438L3.51138 97.8891C3.51138 96.6764 3.9055 96.2823 5.23942 96.2823Z" fill="#032830"/>
<path d="M1.08606 109.735L1.08606 112.706L16.0018 112.706L16.0018 109.735L7.54348 109.735C4.75436 109.735 3.26885 108.128 3.26885 106.188C3.26885 104.096 4.42088 103.217 6.72493 103.217L16.0018 103.217L16.0018 100.246L5.99734 100.246C2.51094 100.246 0.782899 102.004 0.782899 105.127C0.782899 107.279 1.78334 108.886 4.02676 109.735L1.08606 109.735Z" fill="#032830"/>
<path d="M14.0312 121.634C14.0312 123.695 13.2127 124.605 11.4846 124.786L11.4846 127.667C14.6072 127.515 16.3049 125.696 16.3049 121.603C16.3049 117.814 14.5769 116.025 11.9394 116.025C9.36246 116.025 8.27107 117.45 7.69506 120.3L7.27063 122.452C6.8462 124.483 6.4824 125.029 5.14847 125.029C3.78423 125.029 3.05664 124.21 3.05664 122.058C3.05664 119.724 3.9055 118.663 5.84575 118.42L5.84575 115.601C2.35936 115.995 0.782899 118.117 0.782899 121.997C0.782898 125.999 2.32904 128 5.26974 128C7.84664 128 8.81677 126.757 9.57468 123.24L9.96879 121.3C10.3629 119.633 10.7873 118.996 12.0606 118.996C13.3642 118.996 14.0312 119.724 14.0312 121.634Z" fill="#032830"/>
<defs>
<linearGradient id="paint0_linear_43_8945" x1="-3.15789" y1="-1.80791" x2="8.17267" y2="37.3556" gradientUnits="userSpaceOnUse">
<stop stop-color="#95B8D9"/>
<stop offset="0.546875" stop-color="#3EE0F5"/>
<stop offset="0.765625" stop-color="#00BCE1"/>
<stop offset="1" stop-color="#004F70"/>
</linearGradient>
</defs>
</svg>
