<svg width="32" height="32" viewBox="0 0 32 32" fill="none" xmlns="http://www.w3.org/2000/svg">
<g opacity="0.33">
<path opacity="0.34" d="M13.1467 25.3333L15.3867 23.44C15.72 23.16 16.28 23.16 16.6267 23.44L18.8533 25.3333C19.3733 25.6 20.0133 25.3333 20.2 24.7733L20.6267 23.4933C20.7333 23.1867 20.6267 22.7333 20.4 22.5067L18.2133 20.3067C18.0533 20.1467 17.9333 19.84 17.9333 19.6267V17.16C17.9333 16.6 18.3467 16.3333 18.8667 16.5467L23.3333 18.4667C24.0667 18.7867 24.68 18.3867 24.68 17.5867V16.3467C24.68 15.7067 24.2 14.96 23.6 14.7067L18.3467 12.44C18.12 12.3467 17.9467 12.0667 17.9467 11.8267V9.06667C17.9467 8.16 17.28 7.09333 16.48 6.68C16.1867 6.53333 15.8533 6.53333 15.56 6.68C14.7467 7.08 14.0933 8.16 14.0933 9.06667V11.8267C14.0933 12.0667 13.9067 12.3467 13.6933 12.44L8.43999 14.7067C7.85332 14.96 7.35999 15.7067 7.35999 16.3467V17.5867C7.35999 18.3867 7.95999 18.7867 8.70665 18.4667L13.1733 16.5467C13.68 16.32 14.1067 16.6 14.1067 17.16V19.6267C14.1067 19.8533 13.9733 20.16 13.8267 20.3067L11.6 22.4933C11.3733 22.72 11.2667 23.1733 11.3733 23.48L11.8 24.76C11.9867 25.3333 12.6133 25.6 13.1467 25.3333Z" stroke="#054957" stroke-width="1.5" stroke-linecap="round" stroke-linejoin="round"/>
<path d="M12 29.3333H20C26.6667 29.3333 29.3334 26.6667 29.3334 20V12C29.3334 5.33333 26.6667 2.66667 20 2.66667L12 2.66667C5.33335 2.66667 2.66669 5.33333 2.66669 12L2.66669 20C2.66669 26.6667 5.33335 29.3333 12 29.3333Z" stroke="#054957" stroke-width="1.5" stroke-linecap="round" stroke-linejoin="round"/>
</g>
</svg>
